<svg id="Layer_1" data-name="Layer 1" xmlns="http://www.w3.org/2000/svg" width="495" height="494" viewBox="0 0 495 494">
  <defs>
    <style>
      .cls-1 {
        fill: #8ba7b8;
      }
    </style>
  </defs>
  <title>barbell-02</title>
  <g>
    <path class="cls-1" d="M390.26,442.35c0,3.7.2,6.19-2.45,9.09-6.19,3.15-10.41,4-16.1,2.27L308.18,406l-.52-.35-54.43-59.95a11.34,11.34,0,0,0-6.65-3.67c-40.67-5.81-63,1.2-86.62,18.87a11.39,11.39,0,0,0-4.55,8.92c-.12,24.52-.24,49.11-.35,73.59-.81,6-4.64,10.31-10.86,10.31-6.62-.2-10.49-4.66-11.19-8.91.47-27.54,1-55.24,1.39-82.69-.52-6.26,1.88-9.5,5.25-11.71,20-10.85,40.2-21.4,60.2-32.16a11.49,11.49,0,0,0,5.6-12.24c-4.95-22.12-9.09-42.78-10.85-71a11.28,11.28,0,0,0-3.32-7.32c-40.3-40.25-45.68-71.92-36.23-119.57L166.73,105c-2.07,18.8-3.33,41.36,1.1,61.48,5.5,22.64,19.11,43.81,43.75,62.4a11.11,11.11,0,0,0,6.65,2.27h56a11.35,11.35,0,0,0,7.52-2.79c20.3-18.59,31.34-38.35,36.58-59.78,4.25-17.85,5-43.11,5.25-63.29l11.68,2.79c3.64,47.61-2.09,81-32,120.79a11.19,11.19,0,0,0-1.75,3.15l-28,83.9a11.36,11.36,0,0,0,1.4,9.79l44.8,67.13a11.27,11.27,0,0,0,3,3Z"/>
    <path class="cls-1" d="M245.34,140.64a16.93,16.93,0,1,1-.34,0Z"/>
    <path d="M335.26,108.1l-11.68-2.79c-.27,20.18-1,45.44-5.25,63.29-5.24,21.43-16.28,41.19-36.58,59.78a11.35,11.35,0,0,1-7.52,2.79h-56a11.11,11.11,0,0,1-6.65-2.27c-24.64-18.59-38.25-39.76-43.75-62.4-4.43-20.12-3.17-42.68-1.1-61.48l-11.68,3.09c-9.45,47.65-4.07,79.32,36.23,119.57A11.28,11.28,0,0,1,194.6,235c1.76,28.22,5.9,48.88,10.85,71a11.49,11.49,0,0,1-5.6,12.24c-20,10.76-40.21,21.31-60.2,32.16-3.37,2.21-5.77,5.45-5.25,11.71-.42,27.45-.92,55.15-1.39,82.69.7,4.25,4.57,8.71,11.19,8.91,6.22,0,10.05-4.32,10.86-10.31.11-24.48.23-49.07.35-73.59a11.39,11.39,0,0,1,4.55-8.92c23.59-17.67,45.95-24.68,86.62-18.87a11.34,11.34,0,0,1,6.65,3.67l54.43,59.95.52.35,63.53,47.72c5.69,1.7,9.91.88,16.1-2.27,2.65-2.9,2.49-5.39,2.45-9.09l-67.55-46.49a11.27,11.27,0,0,1-3-3l-44.8-67.13a11.36,11.36,0,0,1-1.4-9.79l28-83.9a11.19,11.19,0,0,1,1.75-3.15C333.17,189.05,338.9,155.71,335.26,108.1ZM470.93,28.94A11.62,11.62,0,0,1,480,42.05L452,187.48a11.63,11.63,0,0,1-12.95,8.91l-61.6-11.19a11.65,11.65,0,0,1-9.1-13.11l10.85-56.63c-7-1.84-14-3.51-21-5.07,2.91,48.19-5.11,87.68-35.52,129.35L296.6,318.05,337,378.7l70.87,48.77a11.4,11.4,0,0,1,4.9,9.09c1,11.66-1.87,21.82-8.75,30.59-11.81,10.05-21.67,9.92-35.87,9.09a11.11,11.11,0,0,1-6.65-2.27l-67.2-50.34a12.36,12.36,0,0,1-1.58-1.4l-53.19-58.39c-31.48-4.07-44.23-.37-61.78,12.07q-.18,33.46-.35,66.94c-1.67,18.06-16.55,33.38-33.43,33.39-16.15-.31-28.71-12.16-33.42-26.75-.64-30.61,1-61.27,1.39-86.52a35.32,35.32,0,0,1,16.45-32.17c17.87-9.31,35.73-19,53.55-28.49-4.05-18.69-7.71-38.15-9.45-62.41-39.59-41.34-48.83-82.24-40.77-130.75-7.07,1.52-14.23,3.09-21.35,4.9l11.19,58a11.61,11.61,0,0,1-9.1,13.11l-61.6,11.19a11.63,11.63,0,0,1-13-8.91L10,42a11.62,11.62,0,0,1,9.1-13.11c21.5-3,43.56-9.26,64.9-11.33a11.51,11.51,0,0,1,9.62,9.09L106.23,92.2c45.94-11.52,90.91-17.3,136-17.3,46.76,0,93.47,6.29,141.23,18.7l13-66.95a11.56,11.56,0,0,1,11.19-9.26h0C428.44,21.23,449.9,25.12,470.93,28.94ZM296.63,163.36c4.12-16.85,4.55-37.11,4.73-62.58-20.55-2-41.48-3.62-59.15-3.67h0a507.93,507.93,0,0,0-52.32,2.8c-3.14,23.57-4.44,43.8-.18,61.35,4.14,17.07,13.37,32.18,32.73,47.55h46.72C284.6,193.81,292.57,180,296.63,163.36Z"/>
    <path class="cls-1" d="M245,118.26a39.16,39.16,0,1,1-39.2,39.16A39.16,39.16,0,0,1,245,118.26Zm16.8,39.16a16.62,16.62,0,0,0-16.46-16.78H245a16.78,16.78,0,1,0,16.8,16.78Z"/>
  </g>
</svg>
