<?xml version="1.0" encoding="utf-8"?>
<!-- Uploaded to: SVG Repo, www.svgrepo.com, Generator: SVG Repo Mixer Tools -->
<svg width="800px" height="800px" viewBox="-1.8 0 20.395 20.395" xmlns="http://www.w3.org/2000/svg">
  <g id="pilates-2" transform="translate(-3.606 -2)">
    <circle id="secondary" fill="#2ca9bc" cx="2" cy="2" r="2" transform="translate(10 3)"/>
    <circle id="primary" cx="2" cy="2" r="2" transform="translate(10 3)" fill="none" stroke="#000000" stroke-linecap="round" stroke-linejoin="round" stroke-width="2"/>
    <path id="primary-2" data-name="primary" d="M5,9l.46.65a1,1,0,0,0,1.33.28L10,8h4l3.51,2.11A1,1,0,0,1,18,11v1" fill="none" stroke="#000000" stroke-linecap="round" stroke-linejoin="round" stroke-width="2"/>
    <path id="primary-3" data-name="primary" d="M19,21l-4.63-6.48A2,2,0,0,1,14,13.36V8H10v5.17a2,2,0,0,1-.59,1.42L7.59,16.41A2,2,0,0,0,7,17.83V21" fill="none" stroke="#000000" stroke-linecap="round" stroke-linejoin="round" stroke-width="2"/>
  </g>
</svg>