<svg id="Layer_1" data-name="Layer 1" xmlns="http://www.w3.org/2000/svg" width="545" height="528" viewBox="0 0 545 528">
  <defs>
    <style>
      .cls-1 {
        fill: #8ba7b8;
      }

      .cls-2 {
        fill: none;
        stroke: #fff;
        stroke-miterlimit: 107.69;
        stroke-width: 21.54px;
      }
    </style>
  </defs>
  <title>body</title>
  <g>
    <path class="cls-1" d="M449.71,214.67A420.17,420.17,0,0,1,464.23,295c-96,30.25-144.31,127.06-156.62,158-2.05,5.17-7.8,8.59-14.3,8.59H250.86c-6.49,0-12.25-3.42-14.3-8.59-12.36-31.12-61.08-128.75-158-158.48l-.86-.08A419.23,419.23,0,0,1,92.34,214C101.91,216.28,294.89,261.08,449.71,214.67Z"/>
    <g>
      <path class="cls-2" d="M97.26,9.31S146,71.78,97.26,199c0,0-2.07,5.27-4.92,15a419.23,419.23,0,0,0-14.67,80.44,460,460,0,0,0,30.82,210.23H433.38A459.9,459.9,0,0,0,464.23,295a420.17,420.17,0,0,0-14.52-80.3C446.76,204.54,444.6,199,444.6,199c-48.73-127.25,0-189.72,0-189.72"/>
      <path class="cls-2" d="M92,213.92l.37.09c9.57,2.27,202.55,47.07,357.37.66.84-.24,1.68-.49,2.51-.75"/>
      <path class="cls-2" d="M78.53,294.53c96.95,29.73,145.67,127.36,158,158.48,2.05,5.17,7.81,8.59,14.3,8.59h42.45c6.5,0,12.25-3.42,14.3-8.59,12.31-31,60.61-127.79,156.62-158l1.41-.44"/>
      <path class="cls-2" d="M304.4,127.77a32.31,32.31,0,0,1-64.62,0"/>
      <line class="cls-2" x1="304.4" y1="461.61" x2="304.4" y2="504.68"/>
      <line class="cls-2" x1="239.78" y1="461.61" x2="239.78" y2="504.68"/>
    </g>
  </g>
</svg>
