<?xml version="1.0" encoding="utf-8"?><!-- Uploaded to: SVG Repo, www.svgrepo.com, Generator: SVG Repo Mixer Tools -->
<svg fill="#000000" width="800px" height="800px" viewBox="0 0 24 24" id="dumbbell" data-name="Flat Color" xmlns="http://www.w3.org/2000/svg" class="icon flat-color"><path id="primary" d="M21,13H3a1,1,0,0,1,0-2H21a1,1,0,0,1,0,2Z" style="fill: rgb(0, 0, 0);"></path><path id="secondary" d="M7,8v8a1,1,0,0,1-2,0V15a1,1,0,0,1-2,0V9A1,1,0,0,1,5,9V8A1,1,0,0,1,7,8ZM20,8a1,1,0,0,0-1,1V8a1,1,0,0,0-2,0v8a1,1,0,0,0,2,0V15a1,1,0,0,0,2,0V9A1,1,0,0,0,20,8Z" style="fill: rgb(44, 169, 188);"></path></svg>