<svg id="Layer_1" data-name="Layer 1" xmlns="http://www.w3.org/2000/svg" width="557" height="255" viewBox="0 0 557 255">
  <defs>
    <style>
      .cls-1 {
        fill: #8ba7b8;
      }

      .cls-2 {
        fill: #fff;
      }
    </style>
  </defs>
  <title>equipment</title>
  <g>
    <path class="cls-1" d="M548.53,111.58v28.85A13.57,13.57,0,0,1,534.93,154h-8.79a13.57,13.57,0,0,1-13.59-13.59V111.58A13.6,13.6,0,0,1,526.14,98h8.79A13.59,13.59,0,0,1,548.53,111.58Z"/>
    <path class="cls-2" d="M505.3,53.29V198.75a12.1,12.1,0,0,1-12.13,12.1H465.26a12.07,12.07,0,0,1-12.1-12.1V53.29a12.09,12.09,0,0,1,12.1-12.1h27.91A12.12,12.12,0,0,1,505.3,53.29Z"/>
    <path class="cls-1" d="M444.72,24.18V227.82a16.92,16.92,0,0,1-16.94,16.94H388.7a17,17,0,0,1-17-16.94V24.18a17,17,0,0,1,17-16.94h39.08A17,17,0,0,1,444.72,24.18Z"/>
    <rect class="cls-2" x="198.75" y="112.02" width="156.5" height="28"/>
    <path class="cls-1" d="M182.27,24.18V227.82h0a17,17,0,0,1-16.95,16.94h-39a17,17,0,0,1-17-16.94V24.18a17,17,0,0,1,17-16.94h39.06A17,17,0,0,1,182.27,24.18Z"/>
    <path class="cls-2" d="M100.84,53.29V198.75a12.07,12.07,0,0,1-12.12,12.1H60.84a12.08,12.08,0,0,1-12.13-12.1V53.29a12.09,12.09,0,0,1,12.13-12.1H88.73A12.09,12.09,0,0,1,100.84,53.29Z"/>
    <path class="cls-1" d="M41.45,111.58v28.85A13.57,13.57,0,0,1,27.84,154H19.07a13.59,13.59,0,0,1-13.6-13.59V111.58A13.61,13.61,0,0,1,19.07,98h8.77A13.6,13.6,0,0,1,41.45,111.58Z"/>
  </g>
</svg>
